PathFileType	4	(X/Y/Z)	24_1_47_p1_0-217_filt_butterworth.trc
DataRate	CameraRate	NumFrames	NumMarkers	Units	OrigDataRate	OrigDataStartFrame	OrigNumFrames
58.0	58.0	4	27	m	58.0	0	217
Frame#	Time	RHip			RKnee			RAnkle			RBigToe			RSmallToe			RHeel			LHip			LKnee			LAnkle			LBigToe			LSmallToe			LHeel			Neck			Head			Nose			RShoulder			RElbow			RWrist			RThumb			RIndex			RPinky			LShoulder			LElbow			LWrist			LThumb			LIndex			LPinky			
		X1	Y1	Z1	X2	Y2	Z2	X3	Y3	Z3	X4	Y4	Z4	X5	Y5	Z5	X6	Y6	Z6	X7	Y7	Z7	X8	Y8	Z8	X9	Y9	Z9	X10	Y10	Z10	X11	Y11	Z11	X12	Y12	Z12	X13	Y13	Z13	X14	Y14	Z14	X15	Y15	Z15	X16	Y16	Z16	X17	Y17	Z17	X18	Y18	Z18	X19	Y19	Z19	X20	Y20	Z20	X21	Y21	Z21	X22	Y22	Z22	X23	Y23	Z23	X24	Y24	Z24	X25	Y25	Z25	X26	Y26	Z26	X27	Y27	Z27	
0	0.0	0.43125768532409287	0.8337123675967686	0.6947477550212072	0.43398440564968216	0.36382424450905104	0.6857180652555845	0.42791100990010716	-0.03481177262042065	0.6740032194337265	0.4195793266730043	-0.05507348256065718	0.560469774534184	0.48285795314337476	-0.030048437236088632	0.5563409250309381	0.40065175315695667	-0.08961542386424814	0.7126197849306237	0.207459139747588	0.8182472243375244	0.6899528067960108	0.20404606984296034	0.36519112557524147	0.663287332927011	0.19885193180707353	-0.04270732211200168	0.6452670265131426	0.2721618316546749	-0.04211609464183398	0.5299901264216069	0.1956296658634655	-0.04151777676651327	0.5288042320690891	0.17682839755915702	-0.09736759292127632	0.7019106669855657	0.3296434146680526	1.4280893853336172	0.6775281070508896	0.3416153881310186	1.6617179248284852	0.6381670774654016	0.3313519144448177	1.5595846138418095	0.5633003872161396	0.4729031174760945	1.3260862516676208	0.6896457405806723	0.5183176578613178	1.0524016976102335	0.6978636836560308	0.42570733669680416	0.8728903497130599	0.5135619523841531	0.3402128391525899	0.8477130965220888	0.46580389778446585	0.3303026529704436	0.8222712579345839	0.49106786005649716	0.33327358469322776	0.8082313815798472	0.5054129291219582	0.17987814900886234	1.3198854602548544	0.6950548212365457	0.12450793391765184	1.066017432524	0.6227630541474403	0.26026499601055	0.9194218553025703	0.4749099401416586	0.36328043634768076	0.8822979270080417	0.43138787359457664	0.36832445106350975	0.8669927073119028	0.42864879413257484	0.3301514446687284	0.8297065316740281	0.4857562748192906	
1	0.0172413793103448	0.4310364580701538	0.8340831602015722	0.6941950536362982	0.43281399537378673	0.36461523285208564	0.6853025093249185	0.4278677650480065	-0.034890611843297364	0.673983700480808	0.41712310275777825	-0.051709030835371664	0.5524182053048395	0.4795605483234194	-0.02460927149549455	0.5485983315659684	0.4014472071519719	-0.09152057660840153	0.7176995433676235	0.20808537377310624	0.8192466824197604	0.6883065222047249	0.20401579413943122	0.3655357112193251	0.6632886540645327	0.19913547745453938	-0.04202296819177874	0.6483788253038599	0.26816143255356245	-0.03284953868541212	0.5158766384623232	0.1950539581055822	-0.03656661109088102	0.5280192486090576	0.1778529962824053	-0.09841132972787614	0.703721097407242	0.3292816578377044	1.4279510805655697	0.6783364918300819	0.3416143720855614	1.6619709940326886	0.6378309139791889	0.3320673462240014	1.5610126461348963	0.5651380174307141	0.47522850442622155	1.3260669880958986	0.6905804140711997	0.5173311386019671	1.0520678957684608	0.6944955772142883	0.4255364115476247	0.8722585051710008	0.5134885029069036	0.3391052362487539	0.8473050321628647	0.468579347102273	0.33034921407009504	0.8219309918434176	0.4909175769368588	0.33338045725449555	0.8074703087388112	0.5055096852014742	0.1799256641113926	1.3199658081279624	0.6950032579070641	0.12504013933649624	1.067386657380153	0.6222210054094135	0.2601136700195006	0.917740194435077	0.4794214272153936	0.3604200855770207	0.8814104805263264	0.4326060572839868	0.3668034708868184	0.865696012262346	0.43100703814451524	0.3311634314644922	0.8282281305862997	0.48360246321900247	
2	0.0344827586206896	0.43087966063530536	0.8343258348446854	0.6937705785304669	0.43183593659696856	0.3651987528260204	0.6849508830077068	0.4278385890253542	-0.03499551848860327	0.673931696850519	0.4158766892406487	-0.04954303741433424	0.547312816375057	0.47773620084218643	-0.021051750236130512	0.5435694165832116	0.4020773534191339	-0.09314523685879295	0.7217773732862874	0.20859711142974086	0.8201208752544198	0.6867466526667496	0.20398232536056918	0.3656794471754171	0.663365815921491	0.19936309495371196	-0.04150671452191268	0.6509230671061164	0.2655420345269339	-0.026834356075987532	0.5068652274620535	0.19466881300998992	-0.03330321725274304	0.5275689224671558	0.17869565679897215	-0.09939377965184168	0.7052118333004016	0.3292236193165816	1.4279342495881309	0.6784602827486734	0.34162428700786696	1.662110881548199	0.6376848337436161	0.33222220718246653	1.5620635838630026	0.5656583129100248	0.4762724600996898	1.3259816518441054	0.6910034621106813	0.5166920947042962	1.052070807092824	0.6917041694041665	0.4255401081537705	0.8720572603728267	0.5134368310741173	0.3381496387255756	0.846915808602974	0.47095980141090993	0.33044063229122334	0.8218522062913514	0.49079666254078985	0.33341540236135103	0.807585290597446	0.5056723052434994	0.17993943248880906	1.3199918672516517	0.6950125876456456	0.12523654203494294	1.0683673267358935	0.6221956344342432	0.2598315349033873	0.91636764639522	0.48314841178445295	0.35761303046326115	0.8796103828464688	0.4364411147906194	0.3649992584008985	0.8640116143820801	0.43452442506843775	0.33152116986499025	0.8270921908276513	0.48386561015459684	
3	0.0517241379310344	0.43077964257518697	0.834455970504861	0.6934633155746972	0.4310379163933674	0.3655959855070555	0.684660517862683	0.4278217846578136	-0.03512105921670018	0.6738525232037997	0.41557111059493684	-0.048321202231952666	0.544590887371815	0.4770667289668374	-0.018989225796583784	0.5407063593293917	0.40255504123054986	-0.09450985097839187	0.7249309962345493	0.2090031016685037	0.8208759805763697	0.6852742841041888	0.20394555377556436	0.36564680943332317	0.6635070461137714	0.19953930461781821	-0.04114341328167277	0.6529438432094317	0.264047926501068	-0.023461404367619815	0.5019808414181299	0.19443939532942384	-0.03141882811393548	0.5273838053041906	0.1793715705951272	-0.1003159427757297	0.7064087366671267	0.3293546389964356	1.4279939139222666	0.6781557480195801	0.34164035168377777	1.6621601044797782	0.6376805770827725	0.33191464092525824	1.562774901701574	0.5650843185173735	0.4763241275028499	1.3258847837197791	0.6910346188257922	0.5163177924393174	1.052349589904766	0.6894400018808863	0.42564065707588844	0.8722077388068533	0.5133918156751204	0.337348837456228	0.8465562607589792	0.4729429980687162	0.33056122696427637	0.8219660649920264	0.4907037460139956	0.3333975525056144	0.808343320208266	0.5058805907364927	0.17992624634779267	1.319975717529663	0.6950696550645	0.12517969665115067	1.0690215558252691	0.6225473412332237	0.25945413512089993	0.9152855131741765	0.4861270702315157	0.35493766492796797	0.8772199196700039	0.4420215987831102	0.36304339538330727	0.8621105678785587	0.4387581024286337	0.33137693458560147	0.8262563132590137	0.4858590732189185	
